<svg width="20" height="20" viewBox="0 0 20 20" fill="none" xmlns="http://www.w3.org/2000/svg"><path fill-rule="evenodd" clip-rule="evenodd" d="M12.4993 2.49992v-.83333c0-.46024.3731-.833338.8334-.833338.4602 0 .8333.373098.8333.833338v.83333h1.6667c1.3807 0 2.5 1.11929 2.5 2.5V16.6666c0 1.3807-1.1193 2.5-2.5 2.5H4.16602c-1.38072 0-2.5-1.1193-2.5-2.5V4.99992c0-1.38071 1.11928-2.5 2.5-2.5h1.66666v-.83333c0-.46024.3731-.833338.83334-.833338.46023 0 .83333.373098.83333.833338v.83333h4.99995zM3.33268 9.16659v7.50001c0 .4602.3731.8333.83334.8333H15.8327c.4602 0 .8333-.3731.8333-.8333V9.16659H3.33268zM16.666 7.49992H3.33268v-2.5c0-.46024.3731-.83334.83334-.83334h1.66666v.83334c0 .46024.3731.83333.83334.83333.46023 0 .83333-.37309.83333-.83333v-.83334h4.99995v.83334c0 .46024.3731.83333.8334.83333.4602 0 .8333-.37309.8333-.83333v-.83334h1.6667c.4602 0 .8333.3731.8333.83334v2.5z" fill="#000"/><mask id="a" maskUnits="userSpaceOnUse" x="1" y="0" width="18" height="20"><path fill-rule="evenodd" clip-rule="evenodd" d="M12.4993 2.49992v-.83333c0-.46024.3731-.833338.8334-.833338.4602 0 .8333.373098.8333.833338v.83333h1.6667c1.3807 0 2.5 1.11929 2.5 2.5V16.6666c0 1.3807-1.1193 2.5-2.5 2.5H4.16602c-1.38072 0-2.5-1.1193-2.5-2.5V4.99992c0-1.38071 1.11928-2.5 2.5-2.5h1.66666v-.83333c0-.46024.3731-.833338.83334-.833338.46023 0 .83333.373098.83333.833338v.83333h4.99995zM3.33268 9.16659v7.50001c0 .4602.3731.8333.83334.8333H15.8327c.4602 0 .8333-.3731.8333-.8333V9.16659H3.33268zM16.666 7.49992H3.33268v-2.5c0-.46024.3731-.83334.83334-.83334h1.66666v.83334c0 .46024.3731.83333.83334.83333.46023 0 .83333-.37309.83333-.83333v-.83334h4.99995v.83334c0 .46024.3731.83333.8334.83333.4602 0 .8333-.37309.8333-.83333v-.83334h1.6667c.4602 0 .8333.3731.8333.83334v2.5z" fill="#fff"/></mask><g mask="url(#a)"><path fill="#000" d="M0 0h20v20H0z"/></g></svg>