<svg width="16" height="16" viewBox="0 0 16 16" fill="none" xmlns="http://www.w3.org/2000/svg"><path d="M15.4191.768844l-3.25-.75c-.3531-.08125-.7156.103125-.8594.434375l-1.5 3.500001c-.13125.30625-.04375.66562.2156.875l1.8938 1.55c-1.125 2.39687-3.09065 4.39058-5.53752 5.53748l-1.55-1.8937c-.2125-.25941-.56875-.34691-.875-.21566L.456576 11.3063c-.334375.1469-.51875.5094-.4375.8625l.75 3.25c.078125.3375.378124.5813.731254.5813 8.00312 0 14.49997-6.48438 14.49997-14.50001 0-.35-.2406-.653121-.5812-.731246z" fill="#00ACE2"/></svg>