<svg width="42" height="37" viewBox="0 0 42 37" fill="none" xmlns="http://www.w3.org/2000/svg"><path d="M41.937.677734V6.78125c-2.285.61849-4.0305 1.4974-5.2365 2.63672-1.1743 1.13933-2.1264 2.60413-2.8563 4.39453-.6982 1.7578-1.0473 3.9063-1.0473 6.4453 2.9197 0 5.0778.8626 6.4742 2.5879 1.4282 1.6927 2.1423 3.4994 2.1423 5.4199 0 2.2787-.7776 4.1992-2.3327 5.7617-1.5551 1.53-3.3641 2.295-5.4269 2.295-2.6976 0-5.0144-1.1719-6.9504-3.5157-1.9042-2.3763-2.8562-5.6152-2.8562-9.7168 0-3.6132.7616-6.9987 2.285-10.1562 1.5233-3.15756 3.5862-5.85938 6.1886-8.10548C34.955 2.58203 38.1604 1.19857 41.937.677734zm-23.2788 0V6.78125c-2.285.61849-4.0305 1.4974-5.2365 2.63672-1.1743 1.13933-2.1264 2.60413-2.8563 4.39453-.69822 1.7578-1.04732 3.9063-1.04732 6.4453 2.95152 0 5.12542.8626 6.52192 2.5879 1.3964 1.6927 2.0946 3.4994 2.0946 5.4199 0 2.2787-.7776 4.1992-2.3327 5.7617-1.5551 1.53-3.3641 2.295-5.4269 2.295-2.66591 0-4.96681-1.1719-6.90274-3.5157C1.53633 30.4303.568359 27.1914.568359 23.0898c0-3.6132.761681-6.9987 2.285031-10.1562 1.52336-3.15756 3.58624-5.85938 6.18864-8.10548C11.6762 2.58203 14.8816 1.19857 18.6582.677734z" fill="#56AEFF"/></svg>