<svg width="60" height="46" viewBox="0 0 60 46" fill="none" xmlns="http://www.w3.org/2000/svg"><path fill-rule="evenodd" clip-rule="evenodd" d="M2.44355 35.2067l-.00518-.011C.791826 31.707 0 27.6254 0 23c0-4.6245.791547-8.69 2.44168-12.1437l.00375-.0079c1.68003-3.46839 4.02154-6.17966 7.04559-8.05731C12.5041.920271 15.9234 0 19.698 0c3.7747 0 7.194.920271 10.2071 2.79109 3.025 1.87826 5.3474 4.59103 6.9873 8.06111 1.6919 3.4554 2.5037 7.5227 2.5037 12.1478 0 4.6291-.8132 8.7148-2.5037 12.2067-1.6419 3.4348-3.9655 6.126-6.9873 8.0022C26.892 45.0797 23.4727 46 19.698 46c-3.7746 0-7.1939-.9203-10.20698-2.7911-3.01881-1.8744-5.3604-4.5617-7.04212-7.9913l-.00535-.0109zm21.87895-3.0903c1.2052-1.759 1.9393-4.7067 1.9393-9.1164 0-4.4097-.7341-7.3574-1.9393-9.1164l-.0117-.0172c-1.144-1.7161-2.63-2.5041-4.6128-2.5041-1.9314 0-3.428.7796-4.6185 2.5126-1.172 1.7642-1.8851 4.7173-1.8851 9.1251 0 4.4077.713 7.3608 1.885 9.125 1.1906 1.7331 2.6872 2.5127 4.6186 2.5127 1.9828 0 3.4689-.7879 4.6129-2.504l.0116-.0173zm-10.634.915C12.2462 30.8677 11.525 27.5239 11.525 23c0-4.5239.7212-7.8677 2.1635-10.0314 1.4823-2.1636 3.4855-3.2454 6.0095-3.2454 2.5641 0 4.5673 1.0818 6.0096 3.2454C27.19 15.1323 27.9312 18.4761 27.9312 23c0 4.5239-.7412 7.8677-2.2236 10.0314-1.4423 2.1636-3.4455 3.2454-6.0096 3.2454-2.524 0-4.5272-1.0818-6.0095-3.2454zM60 .708093V45.2919H46.9258V11.6574h-8.4134V.708093H60zM48.5952 10.0182v33.6346h9.7355V2.3472H40.1818v7.671h8.4134zm-38.212 31.8053c2.7243 1.6916 5.8293 2.5374 9.3148 2.5374 3.4856 0 6.5905-.8458 9.3149-2.5374 2.7243-1.6915 4.8477-4.1305 6.3701-7.3169 1.5625-3.2258 2.3438-7.0613 2.3438-11.5066 0-4.4453-.7813-8.2611-2.3438-11.4476-1.5224-3.22572-3.6458-5.68439-6.3701-7.37595-2.7244-1.69156-5.8293-2.53734-9.3149-2.53734-3.4855 0-6.5905.84578-9.3148 2.53734-2.72433 1.69156-4.86775 4.15023-6.43024 7.37595C2.43054 14.7389 1.66933 18.5547 1.66933 23s.76121 8.2808 2.28363 11.5066c1.56249 3.1864 3.70591 5.6254 6.43024 7.3169z" fill="#00ACE2"/></svg>