<svg width="73" height="46" viewBox="0 0 73 46" fill="none" xmlns="http://www.w3.org/2000/svg"><path fill-rule="evenodd" clip-rule="evenodd" d="M4.60015 40.1053l-.00519-.0065C1.45089 36.1182 0 30.3352 0 23 0 15.6687 1.44933 9.90232 4.5975 5.96022 7.81017 1.89517 12.7771 0 19.1598 0c6.4195 0 11.4089 1.89295 14.6234 5.96031C36.9313 9.90241 38.3806 15.6688 38.3806 23c0 7.3352-1.4509 13.1182-4.595 17.0988l-.0051.0065C30.5643 44.1303 25.5755 46 19.1598 46c-6.3789 0-11.34523-1.8719-14.55965-5.8947zM32.653 6.89171c-2.8492-3.60726-7.347-5.4109-13.4932-5.4109-6.1056 0-10.58297 1.80364-13.43222 5.4109C2.87833 10.4575 1.4537 15.8269 1.4537 23s1.42463 12.5632 4.27388 16.1705c2.84925 3.5658 7.32662 5.3487 13.43222 5.3487 6.1462 0 10.644-1.7829 13.4932-5.3487 2.8493-3.6073 4.2739-8.9974 4.2739-16.1705S35.5023 10.4575 32.653 6.89171zM23.2854 33.1329l.0044-.0055c.5829-.7188 1.1003-1.83 1.4772-3.4424l.0028-.0121.003-.012c.4055-1.6147.6263-3.8199.6263-6.6609 0-2.7993-.2208-4.9594-.6242-6.5284l-.0051-.0198-.0046-.0199c-.3789-1.66-.8949-2.7497-1.4548-3.4102l-.023-.0271-.0217-.0281c-.5953-.7749-1.2119-1.221-1.836-1.4421l-.0193-.0068c-.7391-.2738-1.4869-.4085-2.2506-.4085-.761 0-1.5326.1337-2.3208.4117-.5804.2173-1.182.6606-1.7852 1.4457l-.0097.0126-.01.0124c-.5431.6762-1.0631 1.7874-1.4843 3.4598-.3682 1.5818-.5683 3.7504-.5683 6.5487 0 2.8378.1998 5.0499.5692 6.6768.421 1.6703.9408 2.7804 1.4834 3.4561.5912.736 1.1888 1.1721 1.7797 1.3989.7917.2415 1.5724.3591 2.346.3591.7793 0 1.5401-.1193 2.2874-.3594.6366-.2295 1.252-.6688 1.8382-1.3986zm-1.3781 2.8035c-.8955.2902-1.8113.4353-2.7475.4353-.9362 0-1.8724-.1451-2.8086-.4353-.8955-.3317-1.7095-.9537-2.4422-1.8658-.7327-.9122-1.3229-2.2598-1.7706-4.0427-.407-1.7829-.6106-4.1255-.6106-7.0279 0-2.8609.2036-5.1621.6106-6.9036.4477-1.7829 1.0379-3.1304 1.7706-4.0426.7327-.9536 1.5467-1.5963 2.4422-1.928.9362-.3317 1.8724-.49755 2.8086-.49755.9362 0 1.852.16585 2.7475.49755.9362.3317 1.7706.9744 2.5032 1.928.7734.9122 1.3636 2.2597 1.7707 4.0426.4477 1.7415.6716 4.0427.6716 6.9036 0 2.9024-.2239 5.245-.6716 7.0279-.4071 1.7415-.9973 3.089-1.7707 4.0427-.7326.9121-1.567 1.5341-2.5032 1.8658zm27.1192 8.7573l-.0078-.0024c-2.0736-.6467-4.0097-1.4475-5.805-2.4054l-.7792-.4158V29.7452l2.214 1.384c1.74 1.0876 3.4968 2.053 5.2706 2.8971 1.6743.7386 3.4849 1.1134 5.4475 1.1134 2.163 0 3.6881-.4092 4.7145-1.0746.9126-.5915 1.3416-1.3784 1.3416-2.5445 0-1.2676-.414-2.1682-1.2019-2.8561-.7251-.6331-2.2634-1.1362-5.0374-1.1362h-7.4982V16.979h7.6203c1.7811 0 2.8093-.382 3.3684-.8694.6497-.6097.9172-1.2556.9172-2.0034 0-.6793-.1307-1.1482-.3136-1.4756-.176-.3152-.4473-.5846-.8818-.7992l-.0241-.0119-.0237-.0128c-1.0476-.567-2.3688-.8842-4.0192-.8842-1.2553 0-2.5846.1692-3.9914.5178l-.0141.0035-.0141.0032c-1.3211.299-2.9842.9142-5.0082 1.8845l-2.0727.9936V3.43752l.7896-.41306c1.604-.83903 3.348-1.51733 5.2271-2.03937l.0079-.002202C51.2104.451159 53.2292.18658 55.3055.18658c2.6365 0 5.141.418733 7.5039 1.26564 2.4243.86889 4.44 2.25807 6.0039 4.17646 1.6459 1.97625 2.4161 4.47142 2.4161 7.35802 0 1.8166-.425 3.4801-1.3136 4.9414-.78 1.3071-1.7405 2.3919-2.8901 3.2241-.0059.0044-.0117.0088-.0176.0131.3586.2364.7172.495 1.0756.7744 1.4045 1.0524 2.5495 2.4418 3.4481 4.129C72.5267 27.8154 73 29.815 73 32.0182c0 3.167-.8262 5.8769-2.6045 7.9862-1.6542 2.0097-3.8199 3.457-6.4418 4.3624-2.5628.8849-5.2858 1.3222-8.1597 1.3222-2.3346 0-4.5922-.3306-6.7675-.9953zm20.2607-5.6476c1.5061-1.7829 2.2591-4.1256 2.2591-7.0279 0-1.9903-.4274-3.7317-1.2822-5.2244-.814-1.5341-1.8316-2.7572-3.0527-3.6694-.5355-.4182-1.0593-.7766-1.5713-1.0752-.6555-.3823-1.2918-.6666-1.9089-.8528.5474-.0984 1.1713-.3785 1.8717-.8403.1848-.1219.375-.2564.5705-.4036.9769-.7049 1.8113-1.6378 2.5033-2.7988.7327-1.2024 1.099-2.5914 1.099-4.167 0-2.6121-.692-4.74745-2.0759-6.40596-1.3839-1.69998-3.1749-2.94386-5.3729-3.73165-2.198-.7878-4.5384-1.1817-7.0214-1.1817-1.9537 0-3.8464.24878-5.6781.74633-1.791.49756-3.4395 1.14023-4.9455 1.92803v7.64985c.5025-.2408.987-.4623 1.4537-.6642 1.4614-.6326 2.7475-1.0746 3.8581-1.326 1.5061-.37315 2.951-.55973 4.335-.55973 1.8316 0 3.3987.35243 4.7012 1.05733 1.3432.6634 2.0149 1.8658 2.0149 3.6072 0 1.2025-.4681 2.239-1.4043 3.1097-.9362.8293-2.3812 1.2439-4.335 1.2439H49.139v7.5877h6.0444c2.8493 0 4.8438.4976 5.9835 1.4927 1.1397.9951 1.7095 2.3219 1.7095 3.9804s-.6716 2.9231-2.0148 3.7938c-1.3432.8708-3.1749 1.3061-5.495 1.3061-2.1573 0-4.1721-.4146-6.0445-1.2439-1.3376-.6358-2.6643-1.338-3.9802-2.1065-.4861-.2839-.9706-.5768-1.4537-.8788v8.5828c1.7095.9122 3.5615 1.6793 5.556 2.3012 2.0352.6219 4.1518.9329 6.3498.9329 2.7271 0 5.2915-.4146 7.693-1.2439 2.4015-.8292 4.3349-2.1353 5.8002-3.9182z" fill="#00ACE2"/></svg>