<svg width="74" height="46" viewBox="0 0 74 46" fill="none" xmlns="http://www.w3.org/2000/svg"><path fill-rule="evenodd" clip-rule="evenodd" d="M4.61683 40.1132l-.00521-.0064C1.45615 36.1316 0 30.3564 0 23.0311 0 15.7097 1.45458 9.95106 4.61417 6.01428 7.83849 1.95472 12.8235.06211 19.2292.06211c6.4429 0 11.4504 1.8904 14.6765 5.95226 3.1595 3.93678 4.6141 9.69533 4.6141 17.01673 0 7.3253-1.4562 13.1005-4.6117 17.0756l-.0051.0066C30.6751 44.1328 25.6683 46 19.2292 46c-6.4019 0-11.38629-1.8694-14.61237-5.8868zM32.7714 6.94451c-2.8596-3.60239-7.3736-5.40359-13.5422-5.40359-6.1276 0-10.62127 1.8012-13.48085 5.40359C2.88876 10.5055 1.45897 15.8677 1.45897 23.0311c0 7.1633 1.42979 12.5462 4.28938 16.1486 2.85958 3.561 7.35325 5.3415 13.48085 5.3415 6.1686 0 10.6826-1.7805 13.5422-5.3415 2.8596-3.6024 4.2894-8.9853 4.2894-16.1486 0-7.1634-1.4298-12.5256-4.2894-16.08659zM23.3699 33.1502l.0043-.0054c.5851-.7178 1.1043-1.8275 1.4826-3.4378l.0028-.012.003-.012c.407-1.6125.6286-3.8148.6286-6.6519 0-2.7955-.2216-4.9528-.6265-6.5196l-.0051-.0198-.0046-.0199c-.3803-1.6578-.8981-2.746-1.4601-3.4056l-.0231-.027-.0217-.0281c-.5975-.7739-1.2164-1.2193-1.8427-1.4401l-.0193-.0068c-.7419-.2735-1.4924-.408-2.2589-.408-.7637 0-1.5381.1335-2.3291.4112-.5826.2169-1.1863.6596-1.7917 1.4437l-.0098.0126-.01.0124c-.545.6752-1.067 1.785-1.4897 3.4551-.3695 1.5797-.5703 3.7453-.5703 6.5399 0 2.8339.2005 5.0431.5713 6.6677.4225 1.6681.9441 2.7767 1.4887 3.4514.5933.735 1.1931 1.1706 1.7861 1.3971.7947.2411 1.5782.3586 2.3545.3586.7822 0 1.5458-.1192 2.2958-.3589.6389-.2292 1.2565-.6679 1.8449-1.3968zM21.9867 35.95c-.8987.2898-1.8179.4347-2.7575.4347-.9395 0-1.8791-.1449-2.8187-.4347-.8987-.3313-1.7157-.9524-2.4511-1.8633-.7353-.911-1.3276-2.2567-1.777-4.0372-.4085-1.7805-.6128-4.12-.6128-7.0184 0-2.8571.2043-5.1552.6128-6.8943.4494-1.7805 1.0417-3.1262 1.777-4.0371.7354-.9524 1.5524-1.5942 2.4511-1.9255.9396-.33121 1.8792-.49684 2.8187-.49684.9396 0 1.8588.16563 2.7575.49684.9396.3313 1.777.9731 2.5124 1.9255.7761.9109 1.3685 2.2566 1.777 4.0371.4493 1.7391.674 4.0372.674 6.8943 0 2.8984-.2247 5.2379-.674 7.0184-.4085 1.7391-1.0009 3.0848-1.777 4.0372-.7354.9109-1.5728 1.532-2.5124 1.8633zm20.4791 9.2426v-9.4052l.7192-.4288c1.3317-.794 2.7974-1.7966 4.3989-3.014 1.5873-1.2066 3.1379-2.5362 4.6515-3.9897l.0138-.0132c1.5468-1.4473 2.9289-2.9289 4.1485-4.4442l.0026-.0033c1.2507-1.545 2.2286-3.0473 2.9481-4.5058.703-1.4252 1.0102-2.6679 1.0102-3.7485 0-1.8771-.5597-2.9514-1.4213-3.5865l-.0203-.0149-.0198-.0157c-.9958-.7886-2.3322-1.2393-4.1264-1.2393-1.7396 0-3.3283.3836-4.7886 1.1417-1.5831.8219-3.1807 1.8667-4.7921 3.1414l-2.3567 1.8644V4.50329l.6944-.43309c1.6961-1.05796 3.6703-1.98963 5.9097-2.80336l.0081-.00294C51.8452.408161 54.6312 0 57.7733 0c4.7524 0 8.6144 1.17163 11.3454 3.74616 2.7722 2.57434 4.0847 6.1318 4.0847 10.46524 0 2.4538-.5174 4.7681-1.5579 6.9232l-.0054.0113c-1.0066 2.0404-2.3347 3.9559-3.9729 5.7475-1.6027 1.7527-3.3317 3.377-5.1865 4.8724l-.0033.0027c-.5418.4343-1.0801.859-1.6147 1.2741H74v12.15H42.4658zm13.9594-10.6712c.6648-.4766 1.3361-.9695 2.0138-1.4788 1.0296-.7737 2.0741-1.5851 3.1335-2.4341 1.7974-1.4492 3.4723-3.0227 5.0247-4.7204 1.5523-1.6977 2.7983-3.4989 3.7379-5.4036.9395-1.9461 1.4093-4.0371 1.4093-6.2731 0-4.0165-1.2051-7.14267-3.6153-9.37864-2.3694-2.23596-5.8213-3.35395-10.3558-3.35395-3.023 0-5.6375.39337-7.8434 1.1801-2.1651.78673-4.0443 1.67697-5.6375 2.67074v8.57125c.4863-.3848.9727-.7503 1.459-1.0966 1.1886-.8465 2.3771-1.5782 3.5657-2.1953 1.6749-.86953 3.4928-1.3043 5.4537-1.3043 2.0425 0 3.7174.51758 5.0247 1.5528 1.348.9937 2.0221 2.5879 2.0221 4.7824 0 1.3665-.3881 2.8364-1.1643 4.4099-.7761 1.5734-1.8179 3.1676-3.1251 4.7824-1.2664 1.5735-2.6962 3.1056-4.2894 4.5962-1.5523 1.4907-3.1455 2.8571-4.7796 4.0993-1.634 1.2422-3.1455 2.2774-4.5344 3.1055v7.0806H72.541v-9.1924H56.4252z" fill="#00ACE2"/></svg>