<svg width="23" height="23" viewBox="0 0 23 23" fill="none" xmlns="http://www.w3.org/2000/svg"><g clip-path="url(#clip0)"><path d="M5.22114 22.4705V7.6271H.290883v14.8434H5.22114zM2.75665 5.59927c1.71927 0 2.78943-1.13979 2.78943-2.56416C5.51405 1.57862 4.47598.470459 2.78927.470459 1.10283.470459 0 1.57864 0 3.03511c0 1.42443 1.0699 2.56416 2.72446 2.56416H2.75665zM7.95002 22.4705h4.93028v-8.2893c0-.4436.032-.8868.1622-1.2039.3564-.8864 1.1677-1.8044 2.5296-1.8044 1.7841 0 2.4978 1.3612 2.4978 3.3566v7.9409h4.9299v-8.5111c0-4.55928-2.4323-6.68068-5.6761-6.68068-2.6597 0-3.8275 1.48769-4.4762 2.50094h.0329V7.62679H7.95013c.0647 1.39282 0 14.84341 0 14.84341l-.00011.0003z" className="fill-current text-primary-700" fill="#fff"/></g><defs><clipPath id="clip0"><path className="fill-current text-primary-700" fill="#fff" transform="translate(0 .470703)" d="M0 0h23v22H0z"/></clipPath></defs></svg>