<svg width="24" height="21" viewBox="0 0 24 21" fill="none" xmlns="http://www.w3.org/2000/svg"><g clip-path="url(#clip0)"><path d="M23.9999 2.83976c-.6684 1.01983-1.4883 1.88918-2.4598 2.60806.0096.1928.0143.41072.0143.65374 0 1.35031-.1919 2.70225-.5757 4.05584-.3838 1.3536-.97 2.6492-1.7587 3.8868-.7888 1.2377-1.7283 2.3342-2.8186 3.2894-1.0903.9553-2.4009 1.7169-3.9317 2.285-1.5309.5681-3.17161.8521-4.92211.8521-2.73196 0-5.24782-.7566-7.54759-2.2698.408182.0466.799662.0699 1.17444.0699 2.28233 0 4.32081-.7212 6.11546-2.1636-1.06415-.02-2.01718-.3561-2.85908-1.0082-.84191-.6521-1.42128-1.4853-1.73813-2.4997.31318.0612.62229.0918.92731.0918.43907 0 .8711-.0588 1.2961-.1763-1.13565-.2333-2.07776-.8136-2.82635-1.7408C1.34119 9.84686.966913 8.7767.966913 7.56358v-.06252c.697067.39595 1.440597.60656 2.230587.63184-.67275-.4601-1.20614-1.0601-1.60016-1.79998-.39406-.73988-.59108-1.54056-.59108-2.40204 0-.90857.22192-1.75462.66578-2.53816 1.235 1.55476 2.73145 2.79738 4.48936 3.72784 1.75794.93048 3.64388 1.44724 5.6578 1.55028-.0859-.36724-.1289-.75047-.1291-1.1497 0-1.39394.4809-2.58417 1.4426-3.57068.9617-.986504 2.1219-1.479757 3.4807-1.479757 1.4226 0 2.6209.531407 3.5948 1.594217 1.1128-.22612 2.1547-.63511 3.1257-1.226977-.3741 1.207867-1.095 2.139657-2.1626 2.795357.9813-.11962 1.9241-.38414 2.8285-.79354h.0001z" fill="#fff"/></g><defs><clipPath id="clip0"><path fill="#fff" transform="translate(0 .470703)" d="M0 0h24v20H0z"/></clipPath></defs></svg>