<svg width="24" height="25" viewBox="0 0 24 25" fill="none" xmlns="http://www.w3.org/2000/svg"><g clip-path="url(#clip0)"><path d="M21.1097 18.697c-.141.969-2.1173 3.4845-3.027 3.8475-.3128.1207-.6098.0937-.8513-.09-.1522-.1208-.3127-.3675-2.445-3.828l-.633-1.0313c-.246-.3712-.1995-.8595.1058-1.2307.297-.3593.7305-.492 1.1092-.348.0195.012 1.5975.5272 1.5975.5272 3.5858 1.1798 3.7035 1.2263 3.8558 1.3395.2265.1875.3322.4763.285.8123l.003.0015zm-7.1873-5.2658c-.258-.387-.2497-.8437.012-1.1565l.996-1.3597c2.1878-2.98427 2.3123-3.14102 2.4608-3.24602.2542-.17175.57-.18.8707-.0315.867.42225 2.6213 3.02702 2.7263 4.02752v.0352c.0315.3398-.1058.6173-.3435.7853-.1643.1057-.3165.1642-4.3943 1.1565-.6442.1642-1.0042.2542-1.215.3285l.027-.0315c-.402.1207-.8512-.0743-1.1092-.4763l-.0308-.0315zm-2.508-1.5465c-.1912.0585-.7852.2423-1.51573-.9375 0 0-4.9335-7.76172-5.04675-8.00022-.0705-.26925.012-.5745.25425-.8205.73425-.762 4.7145-1.875002 5.75773-1.620752.3398.09.5745.30075.6563.605252.0622.336.5467 7.53525.6172 9.14852.0668 1.3792-.5272 1.5667-.723 1.6252zm.6525 7.8908c-.012 3.7732-.0195 3.9022-.0817 4.0822-.1013.2775-.3435.4688-.6795.5273-.9608.1642-3.96453-.945-4.59378-1.6875-.12075-.1643-.195-.3285-.21075-.4958-.01629-.1166.00007-.2355.04725-.3435.07425-.195.18-.348 2.87925-3.5115l.79273-.9412c.2738-.348.75-.453 1.1993-.2738.4372.1643.7072.5393.6757.945v1.68l-.0285.0188zm-8.18398-2.4143c-.29325-.0075-.55875-.1875-.71475-.4807-.1095-.2145-.1875-.5663-.2385-.9998-.1365-1.3005.0315-3.2655.42225-3.8865.18-.285.44925-.4372.7425-.426.195 0 .37125.0585 4.23075 1.6485l1.12875.4493c.4065.1522.65628.57.63298 1.0507-.0315.465-.30073.8243-.69523.93l-1.60575.5115c-3.5895 1.1565-3.711 1.1835-3.8985 1.1678l-.0045.0352zm14.97678 7.1055h-.0038l-.0037.0038.0075-.0038z" fill="#fff"/></g><defs><clipPath id="clip0"><path fill="#fff" transform="translate(0 .470703)" d="M0 0h24v24H0z"/></clipPath></defs></svg>