<svg width="20" height="21" viewBox="0 0 20 21" fill="none" xmlns="http://www.w3.org/2000/svg"><path d="M20 6.9707c0 1.37-1.12 2.5-2.5 2.5s-2.5-1.13-2.5-2.5c0 1.37-1.12 2.5-2.5 2.5s-2.5-1.13-2.5-2.5c0 1.37-1.12 2.5-2.5 2.5s-2.5-1.13-2.5-2.5c0 1.37-1.12 2.5-2.5 2.5s-2.5-1.13-2.5-2.5l1.39-5.42S1.68.470703 2.7.470703h14.6c1.02 0 1.31 1.079997 1.31 1.079997l1.39 5.42zm-1 3.7v7.8c0 1.1-.9 2-2 2H3c-1.1 0-2-.9-2-2v-7.8a3.960903 3.960903 0 002.07957.2588c.70385-.1021 1.36722-.3918 1.92043-.8388.69.55 1.56.88 2.5.88.95 0 1.82-.33 2.5-.88.69.55 1.56.88 2.5.88.95 0 1.82-.33 2.5-.88.68.55 1.56.88 2.5.88.53 0 1.04-.11 1.5-.3zm-2 5.13c0-.2 0-.41-.05-.63l-.03-.16h-2.97v1.17h1.81c-.06.22-.14.44-.31.62-.33.33-.78.51-1.26.51-.5 0-.99-.21-1.35-.56-.69-.71-.69-1.86.02-2.58.69-.7 1.83-.7 2.55-.03l.14.13.84-.85-.16-.14c-.56-.52-1.3-.81-2.08-.81h-.01c-.81 0-1.57.31-2.14.87-.59.58-.92 1.34-.92 2.13 0 .8.31 1.54.88 2.09.594.5798 1.39.9061 2.22.91h.02c.8 0 1.51-.29 2.03-.8.47-.48.77-1.2.77-1.87z" fill="#fff"/></svg>