<svg width="73" height="46" viewBox="0 0 73 46" fill="none" xmlns="http://www.w3.org/2000/svg">
<path fill-rule="evenodd" clip-rule="evenodd" d="M4.60015 40.1053L4.59496 40.0988C1.45089 36.1182 0 30.3352 0 23C0 15.6687 1.44933 9.90232 4.5975 5.96022C7.81017 1.89517 12.7771 0 19.1598 0C25.5793 0 30.5687 1.89295 33.7832 5.96031C36.9313 9.90241 38.3806 15.6688 38.3806 23C38.3806 30.3352 36.9297 36.1182 33.7856 40.0988L33.7805 40.1053C30.5643 44.1303 25.5755 46 19.1598 46C12.7809 46 7.81457 44.1281 4.60015 40.1053ZM32.653 6.89171C29.8038 3.28445 25.306 1.48081 19.1598 1.48081C13.0542 1.48081 8.57683 3.28445 5.72758 6.89171C2.87833 10.4575 1.4537 15.8269 1.4537 23C1.4537 30.1731 2.87833 35.5632 5.72758 39.1705C8.57683 42.7363 13.0542 44.5192 19.1598 44.5192C25.306 44.5192 29.8038 42.7363 32.653 39.1705C35.5023 35.5632 36.9269 30.1731 36.9269 23C36.9269 15.8269 35.5023 10.4575 32.653 6.89171ZM23.2854 33.1329L23.2898 33.1274C23.8727 32.4086 24.3901 31.2974 24.767 29.685L24.7698 29.6729L24.7728 29.6609C25.1783 28.0462 25.3991 25.841 25.3991 23C25.3991 20.2007 25.1783 18.0406 24.7749 16.4716L24.7698 16.4518L24.7652 16.4319C24.3863 14.7719 23.8703 13.6822 23.3104 13.0217L23.2874 12.9946L23.2657 12.9665C22.6704 12.1916 22.0538 11.7455 21.4297 11.5244L21.4104 11.5176C20.6713 11.2438 19.9235 11.1091 19.1598 11.1091C18.3988 11.1091 17.6272 11.2428 16.839 11.5208C16.2586 11.7381 15.657 12.1814 15.0538 12.9665L15.0441 12.9791L15.0341 12.9915C14.491 13.6677 13.971 14.7789 13.5498 16.4513C13.1816 18.0331 12.9815 20.2017 12.9815 23C12.9815 25.8378 13.1813 28.0499 13.5507 29.6768C13.9717 31.3471 14.4915 32.4572 15.0341 33.1329C15.6253 33.8689 16.2229 34.305 16.8138 34.5318C17.6055 34.7733 18.3862 34.8909 19.1598 34.8909C19.9391 34.8909 20.6999 34.7716 21.4472 34.5315C22.0838 34.302 22.6992 33.8627 23.2854 33.1329ZM21.9073 35.9364C21.0118 36.2266 20.096 36.3717 19.1598 36.3717C18.2236 36.3717 17.2874 36.2266 16.3512 35.9364C15.4557 35.6047 14.6417 34.9827 13.909 34.0706C13.1763 33.1584 12.5861 31.8108 12.1384 30.0279C11.7314 28.245 11.5278 25.9024 11.5278 23C11.5278 20.1391 11.7314 17.8379 12.1384 16.0964C12.5861 14.3135 13.1763 12.966 13.909 12.0538C14.6417 11.1002 15.4557 10.4575 16.3512 10.1258C17.2874 9.7941 18.2236 9.62825 19.1598 9.62825C20.096 9.62825 21.0118 9.7941 21.9073 10.1258C22.8435 10.4575 23.6779 11.1002 24.4105 12.0538C25.1839 12.966 25.7741 14.3135 26.1812 16.0964C26.6289 17.8379 26.8528 20.1391 26.8528 23C26.8528 25.9024 26.6289 28.245 26.1812 30.0279C25.7741 31.7694 25.1839 33.1169 24.4105 34.0706C23.6779 34.9827 22.8435 35.6047 21.9073 35.9364ZM49.0265 44.6937L49.0187 44.6913C46.9451 44.0446 45.009 43.2438 43.2137 42.2859L42.4345 41.8701V29.7452L44.6485 31.1292C46.3885 32.2168 48.1453 33.1822 49.9191 34.0263C51.5934 34.7649 53.404 35.1397 55.3666 35.1397C57.5296 35.1397 59.0547 34.7305 60.0811 34.0651C60.9937 33.4736 61.4227 32.6867 61.4227 31.5206C61.4227 30.253 61.0087 29.3524 60.2208 28.6645C59.4957 28.0314 57.9574 27.5283 55.1834 27.5283H47.6852V16.979H55.3055C57.0866 16.979 58.1148 16.597 58.6739 16.1096C59.3236 15.4999 59.5911 14.854 59.5911 14.1062C59.5911 13.4269 59.4604 12.958 59.2775 12.6306C59.1015 12.3154 58.8302 12.046 58.3957 11.8314L58.3716 11.8195L58.3479 11.8067C57.3003 11.2397 55.9791 10.9225 54.3287 10.9225C53.0734 10.9225 51.7441 11.0917 50.3373 11.4403L50.3232 11.4438L50.3091 11.447C48.988 11.746 47.3249 12.3612 45.3009 13.3315L43.2282 14.3251V3.43752L44.0178 3.02446C45.6218 2.18543 47.3658 1.50713 49.2449 0.98509L49.2528 0.982888C51.2104 0.451159 53.2292 0.18658 55.3055 0.18658C57.942 0.18658 60.4465 0.605313 62.8094 1.45222C65.2337 2.32111 67.2494 3.71029 68.8133 5.62868C70.4592 7.60493 71.2294 10.1001 71.2294 12.9867C71.2294 14.8033 70.8044 16.4668 69.9158 17.9281C69.1358 19.2352 68.1753 20.32 67.0257 21.1522C67.0198 21.1566 67.014 21.161 67.0081 21.1653C67.3667 21.4017 67.7253 21.6603 68.0837 21.9397C69.4882 22.9921 70.6332 24.3815 71.5318 26.0687C72.5267 27.8154 73 29.815 73 32.0182C73 35.1852 72.1738 37.8951 70.3955 40.0044C68.7413 42.0141 66.5756 43.4614 63.9537 44.3668C61.3909 45.2517 58.6679 45.689 55.794 45.689C53.4594 45.689 51.2018 45.3584 49.0265 44.6937ZM69.2872 39.0461C70.7933 37.2632 71.5463 34.9205 71.5463 32.0182C71.5463 30.0279 71.1189 28.2865 70.2641 26.7938C69.4501 25.2597 68.4325 24.0366 67.2114 23.1244C66.6759 22.7062 66.1521 22.3478 65.6401 22.0492C64.9846 21.6669 64.3483 21.3826 63.7312 21.1964C64.2786 21.098 64.9025 20.8179 65.6029 20.3561C65.7877 20.2342 65.9779 20.0997 66.1734 19.9525C67.1503 19.2476 67.9847 18.3147 68.6767 17.1537C69.4094 15.9513 69.7757 14.5623 69.7757 12.9867C69.7757 10.3746 69.0837 8.23925 67.6998 6.58074C66.3159 4.88076 64.5249 3.63688 62.3269 2.84909C60.1289 2.06129 57.7885 1.66739 55.3055 1.66739C53.3518 1.66739 51.4591 1.91617 49.6274 2.41372C47.8364 2.91128 46.1879 3.55395 44.6819 4.34175V11.9916C45.1844 11.7508 45.6689 11.5293 46.1356 11.3274C47.597 10.6948 48.8831 10.2528 49.9937 10.0014C51.4998 9.62825 52.9447 9.44167 54.3287 9.44167C56.1603 9.44167 57.7274 9.7941 59.0299 10.499C60.3731 11.1624 61.0448 12.3648 61.0448 14.1062C61.0448 15.3087 60.5767 16.3452 59.6405 17.2159C58.7043 18.0452 57.2593 18.4598 55.3055 18.4598H49.139V26.0475H55.1834C58.0327 26.0475 60.0272 26.5451 61.1669 27.5402C62.3066 28.5353 62.8764 29.8621 62.8764 31.5206C62.8764 33.1791 62.2048 34.4437 60.8616 35.3144C59.5184 36.1852 57.6867 36.6205 55.3666 36.6205C53.2093 36.6205 51.1945 36.2059 49.3221 35.3766C47.9845 34.7408 46.6578 34.0386 45.3419 33.2701C44.8558 32.9862 44.3713 32.6933 43.8882 32.3913V40.9741C45.5977 41.8863 47.4497 42.6534 49.4442 43.2753C51.4794 43.8972 53.596 44.2082 55.794 44.2082C58.5211 44.2082 61.0855 43.7936 63.487 42.9643C65.8885 42.1351 67.8219 40.829 69.2872 39.0461Z" fill="#00ACE2"/>
</svg>
