<svg width="74" height="46" viewBox="0 0 74 46" fill="none" xmlns="http://www.w3.org/2000/svg">
<path fill-rule="evenodd" clip-rule="evenodd" d="M4.61683 40.1132L4.61162 40.1068C1.45615 36.1316 0 30.3564 0 23.0311C0 15.7097 1.45458 9.95106 4.61417 6.01428C7.83849 1.95472 12.8235 0.0621099 19.2292 0.0621099C25.6721 0.0621099 30.6796 1.95251 33.9057 6.01437C37.0652 9.95115 38.5198 15.7097 38.5198 23.0311C38.5198 30.3564 37.0636 36.1316 33.9081 40.1067L33.903 40.1133C30.6751 44.1328 25.6683 46 19.2292 46C12.8273 46 7.84291 44.1306 4.61683 40.1132ZM32.7714 6.94451C29.9118 3.34212 25.3978 1.54092 19.2292 1.54092C13.1016 1.54092 8.60793 3.34212 5.74835 6.94451C2.88876 10.5055 1.45897 15.8677 1.45897 23.0311C1.45897 30.1944 2.88876 35.5773 5.74835 39.1797C8.60793 42.7407 13.1016 44.5212 19.2292 44.5212C25.3978 44.5212 29.9118 42.7407 32.7714 39.1797C35.631 35.5773 37.0608 30.1944 37.0608 23.0311C37.0608 15.8677 35.631 10.5055 32.7714 6.94451ZM23.3699 33.1502L23.3742 33.1448C23.9593 32.427 24.4785 31.3173 24.8568 29.707L24.8596 29.695L24.8626 29.683C25.2696 28.0705 25.4912 25.8682 25.4912 23.0311C25.4912 20.2356 25.2696 18.0783 24.8647 16.5115L24.8596 16.4917L24.855 16.4718C24.4747 14.814 23.9569 13.7258 23.3949 13.0662L23.3718 13.0392L23.3501 13.0111C22.7526 12.2372 22.1337 11.7918 21.5074 11.571L21.4881 11.5642C20.7462 11.2907 19.9957 11.1562 19.2292 11.1562C18.4655 11.1562 17.6911 11.2897 16.9001 11.5674C16.3175 11.7843 15.7138 12.227 15.1084 13.0111L15.0986 13.0237L15.0886 13.0361C14.5436 13.7113 14.0216 14.8211 13.5989 16.4912C13.2294 18.0709 13.0286 20.2365 13.0286 23.0311C13.0286 25.865 13.2291 28.0742 13.5999 29.6988C14.0224 31.3669 14.544 32.4755 15.0886 33.1502C15.6819 33.8852 16.2817 34.3208 16.8747 34.5473C17.6694 34.7884 18.4529 34.9059 19.2292 34.9059C20.0114 34.9059 20.775 34.7867 21.525 34.547C22.1639 34.3178 22.7815 33.8791 23.3699 33.1502ZM21.9867 35.95C21.088 36.2398 20.1688 36.3847 19.2292 36.3847C18.2897 36.3847 17.3501 36.2398 16.4105 35.95C15.5118 35.6187 14.6948 34.9976 13.9594 34.0867C13.2241 33.1757 12.6318 31.83 12.1824 30.0495C11.7739 28.269 11.5696 25.9295 11.5696 23.0311C11.5696 20.174 11.7739 17.8759 12.1824 16.1368C12.6318 14.3563 13.2241 13.0106 13.9594 12.0997C14.6948 11.1473 15.5118 10.5055 16.4105 10.1742C17.3501 9.84299 18.2897 9.67736 19.2292 9.67736C20.1688 9.67736 21.088 9.84299 21.9867 10.1742C22.9263 10.5055 23.7637 11.1473 24.4991 12.0997C25.2752 13.0106 25.8676 14.3563 26.2761 16.1368C26.7254 17.8759 26.9501 20.174 26.9501 23.0311C26.9501 25.9295 26.7254 28.269 26.2761 30.0495C25.8676 31.7886 25.2752 33.1343 24.4991 34.0867C23.7637 34.9976 22.9263 35.6187 21.9867 35.95ZM42.4658 45.1926V35.7874L43.185 35.3586C44.5167 34.5646 45.9824 33.562 47.5839 32.3446C49.1712 31.138 50.7218 29.8084 52.2354 28.3549L52.2492 28.3417C53.796 26.8944 55.1781 25.4128 56.3977 23.8975L56.4003 23.8942C57.651 22.3492 58.6289 20.8469 59.3484 19.3884C60.0514 17.9632 60.3586 16.7205 60.3586 15.6399C60.3586 13.7628 59.7989 12.6885 58.9373 12.0534L58.917 12.0385L58.8972 12.0228C57.9014 11.2342 56.565 10.7835 54.7708 10.7835C53.0312 10.7835 51.4425 11.1671 49.9822 11.9252C48.3991 12.7471 46.8015 13.7919 45.1901 15.0666L42.8334 16.931V4.50329L43.5278 4.0702C45.2239 3.01224 47.1981 2.08057 49.4375 1.26684L49.4456 1.2639C51.8452 0.408161 54.6312 0 57.7733 0C62.5257 0 66.3877 1.17163 69.1187 3.74616C71.8909 6.3205 73.2034 9.87796 73.2034 14.2114C73.2034 16.6652 72.686 18.9795 71.6455 21.1346L71.6401 21.1459C70.6335 23.1863 69.3054 25.1018 67.6672 26.8934C66.0645 28.6461 64.3355 30.2704 62.4807 31.7658L62.4774 31.7685C61.9356 32.2028 61.3973 32.6275 60.8627 33.0426H74V45.1926H42.4658ZM56.4252 34.5214C57.09 34.0448 57.7613 33.5519 58.439 33.0426C59.4686 32.2689 60.5131 31.4575 61.5725 30.6085C63.3699 29.1593 65.0448 27.5858 66.5972 25.8881C68.1495 24.1904 69.3955 22.3892 70.3351 20.4845C71.2746 18.5384 71.7444 16.4474 71.7444 14.2114C71.7444 10.1949 70.5393 7.06873 68.1291 4.83276C65.7597 2.5968 62.3078 1.47881 57.7733 1.47881C54.7503 1.47881 52.1358 1.87218 49.9299 2.65891C47.7648 3.44564 45.8856 4.33588 44.2924 5.32965V13.9009C44.7787 13.5161 45.2651 13.1506 45.7514 12.8043C46.94 11.9578 48.1285 11.2261 49.3171 10.609C50.992 9.73947 52.8099 9.3047 54.7708 9.3047C56.8133 9.3047 58.4882 9.82228 59.7955 10.8575C61.1435 11.8512 61.8176 13.4454 61.8176 15.6399C61.8176 17.0064 61.4295 18.4763 60.6533 20.0498C59.8772 21.6232 58.8354 23.2174 57.5282 24.8322C56.2618 26.4057 54.832 27.9378 53.2388 29.4284C51.6865 30.9191 50.0933 32.2855 48.4592 33.5277C46.8252 34.7699 45.3137 35.8051 43.9248 36.6332V43.7138H72.541V34.5214H56.4252Z" fill="#00ACE2"/>
</svg>
