<svg width="60" height="46" viewBox="0 0 60 46" fill="none" xmlns="http://www.w3.org/2000/svg">
<path fill-rule="evenodd" clip-rule="evenodd" d="M2.44355 35.2067L2.43837 35.1957C0.791826 31.707 0 27.6254 0 23C0 18.3755 0.791547 14.31 2.44168 10.8563L2.44543 10.8484C4.12546 7.38001 6.46697 4.66874 9.49102 2.79109C12.5041 0.920271 15.9234 0 19.698 0C23.4727 0 26.892 0.920271 29.9051 2.79109C32.9301 4.66935 35.2525 7.38212 36.8924 10.8522C38.5843 14.3076 39.3961 18.3749 39.3961 23C39.3961 27.6291 38.5829 31.7148 36.8924 35.2067C35.2505 38.6415 32.9269 41.3327 29.9051 43.2089C26.892 45.0797 23.4727 46 19.698 46C15.9234 46 12.5041 45.0797 9.49102 43.2089C6.47221 41.3345 4.13062 38.6472 2.4489 35.2176L2.44355 35.2067ZM24.3225 32.1164C25.5277 30.3574 26.2618 27.4097 26.2618 23C26.2618 18.5903 25.5277 15.6426 24.3225 13.8836L24.3108 13.8664C23.1668 12.1503 21.6808 11.3623 19.698 11.3623C17.7666 11.3623 16.27 12.1419 15.0795 13.8749C13.9075 15.6391 13.1944 18.5922 13.1944 23C13.1944 27.4077 13.9074 30.3608 15.0794 32.125C16.27 33.8581 17.7666 34.6377 19.698 34.6377C21.6808 34.6377 23.1669 33.8498 24.3109 32.1337L24.3225 32.1164ZM13.6885 33.0314C12.2462 30.8677 11.525 27.5239 11.525 23C11.525 18.4761 12.2462 15.1323 13.6885 12.9686C15.1708 10.805 17.174 9.7232 19.698 9.7232C22.2621 9.7232 24.2653 10.805 25.7076 12.9686C27.19 15.1323 27.9312 18.4761 27.9312 23C27.9312 27.5239 27.19 30.8677 25.7076 33.0314C24.2653 35.195 22.2621 36.2768 19.698 36.2768C17.174 36.2768 15.1708 35.195 13.6885 33.0314ZM60 0.708093V45.2919H46.9258V11.6574H38.5124V0.708093H60ZM48.5952 10.0182V43.6528H58.3307V2.3472H40.1818V10.0182H48.5952ZM10.3832 41.8235C13.1075 43.5151 16.2125 44.3609 19.698 44.3609C23.1836 44.3609 26.2885 43.5151 29.0129 41.8235C31.7372 40.132 33.8606 37.693 35.383 34.5066C36.9455 31.2808 37.7268 27.4453 37.7268 23C37.7268 18.5547 36.9455 14.7389 35.383 11.5524C33.8606 8.32668 31.7372 5.86801 29.0129 4.17645C26.2885 2.48489 23.1836 1.63911 19.698 1.63911C16.2125 1.63911 13.1075 2.48489 10.3832 4.17645C7.65887 5.86801 5.51545 8.32668 3.95296 11.5524C2.43054 14.7389 1.66933 18.5547 1.66933 23C1.66933 27.4453 2.43054 31.2808 3.95296 34.5066C5.51545 37.693 7.65887 40.132 10.3832 41.8235Z" fill="#00ACE2"/>
</svg>
