<svg width="60" height="71" viewBox="0 0 60 71" fill="none" xmlns="http://www.w3.org/2000/svg"><mask id="a" maskUnits="userSpaceOnUse" x="0" y="0" width="60" height="71"><path fill="#C4C4C4" d="M0 .5h60v70H0z"/></mask><g mask="url(#a)"><g filter="url(#filter0_f)"><ellipse cx="30" cy="62" rx="25" ry="2.5" fill="#B8EAFF"/></g><g filter="url(#filter1_f)"><ellipse cx="30" cy="63" rx="14" ry=".5" fill="#007AEA" fill-opacity=".5"/></g><path d="M26.3151 12.75l3.1886-1.9786 3.1886 1.9786-.8113-3.77857 2.7776-2.55357-3.6846-.36072L29.5037 2.5l-1.4668 3.55714-3.6917.36072 2.7847 2.55357-.8148 3.77857zM39.6359 16.2143l3.1886-1.9786 3.1886 1.9786-.8114-3.775 2.7741-2.55715-3.681-.36071-1.4703-3.55715-1.4668 3.55715-3.6917.36071 2.7847 2.55715-.8148 3.775zM56.9998 19.8429l-3.6811-.3572-1.4703-3.5571-1.4668 3.5571-3.6917.3572L49.4747 22.4l-.8149 3.7786L51.8484 24.2l3.1886 1.9786-.8148-3.7786 2.7776-2.5571zM12.9973 16.2143l3.1851-1.9786 3.1886 1.9786-.8113-3.775 2.7776-2.55715-3.6846-.36071-1.4703-3.55715-1.4668 3.55715-3.6917.36071 2.7847 2.55715-.8113 3.775zM12.3134 19.8429l-3.68463-.3572-1.47031-3.5571-1.46676 3.5571L2 19.8429 4.78472 22.4l-.81132 3.7786L7.15846 24.2l3.19214 1.9786L9.53575 22.4l2.77765-2.5571zM29.5035 22.4929c-3.5889 0-6.4976 2.9321-6.4976 6.5464 0 3.6107 2.9087 6.5464 6.4976 6.5464 3.589 0 6.4906-2.9321 6.4906-6.5464 0-3.6107-2.9051-6.5464-6.4906-6.5464z" fill="#56AEFF"/><path d="M29.5002 16.1143c-9.952 0-18.0476 8.1607-18.0476 18.1928 0 10.0322 8.0956 18.1929 18.0476 18.1929s18.0475-8.1607 18.0475-18.1929c0-10.0321-8.0955-18.1928-18.0475-18.1928zm12.2762 29.0285c-1.2011-2.7357-3.9858-5.1143-7.55-6.1143-1.4667-.4107-3.0575-.6357-4.7298-.6357-1.6687 0-3.263.2286-4.7262.6393-3.5641 1-6.3453 3.3786-7.5428 6.1143-2.5226-2.8964-4.0567-6.6893-4.0567-10.8393 0-9.075 7.3268-16.4607 16.3293-16.4607s16.3292 7.3857 16.3292 16.4607c0 4.1464-1.534 7.9393-4.053 10.8357z" fill="#56AEFF"/></g><defs><filter id="filter0_f" x="-1" y="53.5" width="62" height="17" filterUnits="userSpaceOnUse" color-interpolation-filters="sRGB"><feFlood flood-opacity="0" result="BackgroundImageFix"/><feBlend in="SourceGraphic" in2="BackgroundImageFix" result="shape"/><feGaussianBlur stdDeviation="3" result="effect1_foregroundBlur"/></filter><filter id="filter1_f" x="13" y="59.5" width="34" height="7" filterUnits="userSpaceOnUse" color-interpolation-filters="sRGB"><feFlood flood-opacity="0" result="BackgroundImageFix"/><feBlend in="SourceGraphic" in2="BackgroundImageFix" result="shape"/><feGaussianBlur stdDeviation="1.5" result="effect1_foregroundBlur"/></filter></defs></svg>