<svg width="60" height="71" viewBox="0 0 60 71" fill="none" xmlns="http://www.w3.org/2000/svg"><mask id="a" maskUnits="userSpaceOnUse" x="0" y="0" width="60" height="71"><path fill="#C4C4C4" d="M0 .5h60v70H0z"/></mask><g mask="url(#a)"><g filter="url(#filter0_f)"><ellipse cx="29.666" cy="62" rx="25" ry="2.5" fill="#B8EAFF"/></g><g filter="url(#filter1_f)"><ellipse cx="29.666" cy="62" rx="14" ry=".5" fill="#007AEA" fill-opacity=".5"/></g><mask id="b" fill="#fff"><path d="M28.0124 50.2332c.6679.3572 1.5063.355 2.1742-.0023 18.2025-9.7933 19.4952-28.9273 19.4793-34.3678-.0018-.4373-.1308-.8645-.3713-1.2295-.2405-.3649-.582-.6517-.9828-.8252L30.023 5.69428A2.280063 2.280063 0 0029.0992 5.5c-.318.00039-.6325.06734-.9232.19655L10.0144 13.8107c-.39489.1736-.73161.4572-.97006.817-.23846.3599-.3686.7808-.37493 1.2126-.07724 5.4132 1.011 24.5882 19.34299 34.3929z"/></mask><path d="M28.0124 50.2332l-.9433 1.7636.9433-1.7636zm2.1742-.0023l.9432 1.7636.0044-.0023-.9476-1.7613zm19.4793-34.3678l2-.0059v-.002l-2 .0079zm-1.3541-2.0547l-.8111 1.8281.0083.0037.0083.0036.7945-1.8354zM30.023 5.69428l.8111-1.82816-.0033-.00147-.8078 1.82963zm-1.847.00227l-.8123-1.82764-.0036.0016.8159 1.82604zM10.0144 13.8107l.8049 1.8309.0109-.0049-.8158-1.826zm-1.34499 2.0296l-1.99979-.0292-.00001.0007 1.9998.0285zM27.0691 51.9968c1.2613.6746 2.8075.668 4.0607-.0023l-1.8865-3.5272c-.0826.0442-.2131.0422-.2877.0023l-1.8865 3.5272zm4.0651-.0046c19.2437-10.3536 20.548-30.5445 20.5317-36.135l-4 .0117c.0154 5.2906-1.2656 23.3676-18.4269 32.6008l1.8952 3.5225zm20.5317-36.137c-.0033-.8256-.2469-1.6326-.7013-2.3221l-3.34 2.201c.0266.0404.0411.088.0413.1369l4-.0158zm-.7013-2.3221c-.4544-.6896-1.1001-1.2319-1.8582-1.5601l-1.5891 3.6708c.0433.0188.0808.05.1073.0903l3.34-2.201zm-1.8417-1.5529L30.8341 3.86612l-1.6222 3.65631 18.2888 8.11407 1.6222-3.6563zM30.8308 3.86465c-.5463-.24115-1.1369-.36538-1.734-.36465l.0049 4c.039-.00005.0777.00806.1136.0239l1.6155-3.65925zM29.0968 3.5a4.280161 4.280161 0 00-1.7331.36892l1.6245 3.65526c.0359-.01593.0745-.02413.1135-.02418l-.0049-4zm-1.7367.37051L9.19855 11.9846l1.63165 3.6521 18.1616-8.11411-1.6317-3.65208zM9.20951 11.9798c-.74629.328-1.38222.8639-1.83236 1.5432l3.33435 2.2095c.0268-.0404.0643-.0718.1077-.0909l-1.60969-3.6618zM7.37715 13.523c-.45011.6792-.69559 1.4735-.70753 2.2881l3.99958.0585c.0007-.0491.0155-.0967.0423-.1371L7.37715 13.523zm-.70754 2.2888c-.07942 5.5657 1.01061 25.815 20.39949 36.185l1.8865-3.5272c-17.275-9.2395-18.3615-27.34-18.2864-32.6007l-3.99959-.0571z" fill="#56AEFF" mask="url(#b)"/><mask id="c" maskUnits="userSpaceOnUse" x="18.666" y="18.5" width="22" height="17" fill="#000"><path fill="#fff" d="M18.666 18.5h22v17h-22z"/><path d="M27.5415 28.543l-4.8714-4.8301-3.0041 2.9785L27.5415 34.5 39.666 22.4785 36.662 19.5l-9.1205 9.043z"/></mask><path d="M27.5415 28.543l-4.8714-4.8301-3.0041 2.9785L27.5415 34.5 39.666 22.4785 36.662 19.5l-9.1205 9.043z" fill="#56AEFF"/><path d="M22.6701 23.7129l.704-.7101c-.3898-.3865-1.0183-.3865-1.4081 0l.7041.7101zm4.8714 4.8301l-.7041.7101c.3899.3865 1.0184.3865 1.4082 0l-.7041-.7101zM36.662 19.5l.7041-.7101c-.3899-.3865-1.0184-.3865-1.4082 0l.7041.7101zm3.004 2.9785l.7041.7101c.1894-.1877.2959-.4434.2959-.7101 0-.2667-.1065-.5223-.2959-.7101l-.7041.7101zM27.5415 34.5l-.7041.7101c.3899.3865 1.0184.3865 1.4082 0l-.7041-.7101zm-7.8755-7.8086l-.7041-.7101c-.1894.1878-.2959.4434-.2959.7101 0 .2667.1065.5223.2959.7101l.7041-.7101zm2.3-2.2684l4.8714 4.8301 1.4082-1.4202-4.8715-4.8301-1.4081 1.4202zm13.9919-4.2129l3.004 2.9785 1.4082-1.4202-3.004-2.9785-1.4082 1.4202zm-7.7123 13.5798l-7.8755-7.8086-1.4082 1.4202 7.8755 7.8086 1.4082-1.4202zm-7.8755-6.3884l3.004-2.9785-1.4081-1.4202-3.0041 2.9785 1.4082 1.4202zm7.8755 1.8516l9.1205-9.043-1.4082-1.4202-9.1205 9.043 1.4082 1.4202zm10.7163-7.4847L26.8374 33.7899l1.4082 1.4202 12.1245-12.0215-1.4082-1.4202z" fill="#56AEFF" mask="url(#c)"/></g><defs><filter id="filter0_f" x="-1.33398" y="53.5" width="62" height="17" filterUnits="userSpaceOnUse" color-interpolation-filters="sRGB"><feFlood flood-opacity="0" result="BackgroundImageFix"/><feBlend in="SourceGraphic" in2="BackgroundImageFix" result="shape"/><feGaussianBlur stdDeviation="3" result="effect1_foregroundBlur"/></filter><filter id="filter1_f" x="12.666" y="58.5" width="34" height="7" filterUnits="userSpaceOnUse" color-interpolation-filters="sRGB"><feFlood flood-opacity="0" result="BackgroundImageFix"/><feBlend in="SourceGraphic" in2="BackgroundImageFix" result="shape"/><feGaussianBlur stdDeviation="1.5" result="effect1_foregroundBlur"/></filter></defs></svg>