<svg width="60" height="71" viewBox="0 0 60 71" fill="none" xmlns="http://www.w3.org/2000/svg"><mask id="a" maskUnits="userSpaceOnUse" x="0" y="0" width="60" height="71"><path fill="#C4C4C4" d="M0 .5h60v70H0z"/></mask><g mask="url(#a)"><g filter="url(#filter0_f)"><ellipse cx="29.666" cy="62" rx="25" ry="2.5" fill="#B8EAFF"/></g><g filter="url(#filter1_f)"><ellipse cx="29.666" cy="63" rx="14" ry=".5" fill="#007AEA" fill-opacity=".5"/></g><path d="M46.1613 18.3612l-.003.0053.003-.0053zm0 0l.3595-.6506-.3595.6506zm-4.5488 2.6956l.6229.672.7238-.5619.2443-.1897.0005-.0004 2.7496-2.1317.0456 14.5598-12.7711-4.7045 2.9324-2.2719.0009-.0007.5237-.4068.9711-.7542-.9364-.797c-2.0276-1.7259-4.5931-2.7842-7.4043-2.7842-4.5258 0-8.427 2.7069-10.4558 6.6192h-.0001l-.005.01c-.0042.0084-.0082.0165-.0118.0242-.0253.041-.0546.0739-.0847.0988l.6387.7695-.6387-.7695c-.0358.0298-.0722.048-.1059.0577-.0335.0097-.0669.0119-.0995.0072-.0327-.0046-.0679-.0167-.1035-.039l-.0007-.0004-4.255-2.6561c-.0001-.0001-.0003-.0002-.0005-.0003-.0676-.0426-.1368-.1239-.1716-.2439-.0352-.121-.0263-.2526.0214-.3631l.0618-.143C17.1529 19.3216 22.8424 15.5 29.2993 15.5c4.7892 0 9.1309 2.1232 12.3132 5.5568zm-8.6038 7.6798l-.0509-.0198-.0001-.0001.051.0199z" stroke="#56AEFF" stroke-width="2"/><path d="M45.3383 39.346l-.0011-.0005-4.2564-2.6571c-.1515-.0948-.3188-.1563-.4924-.1811-.1735-.0248-.3499-.0123-.5189.0367-.1691.0489-.3276.1334-.4665.2487-.1388.1152-.2553.2589-.3428.4229-.0031.0062-.0047.013-.0078.0192-1.8787 3.6228-5.4607 6.0796-9.5681 6.0796-2.5525 0-4.8925-.9594-6.756-2.5457l.5236-.4067 3.1118-2.411c.1175-.0918.2095-.2168.2657-.3613.0563-.1445.0747-.3029.0532-.458-.0214-.1551-.0819-.3008-.1748-.4212-.0928-.1204-.2146-.2108-.3518-.2614l-13.3128-4.904c-.119-.0436-.2458-.0558-.3701-.0357-.1242.0201-.2422.0719-.3441.1511-.102.0793-.1851.1837-.2423.3046-.0572.1209-.0869.2548-.0867.3906l.0481 15.1765c.001.1568.0417.3104.1178.4439s.1847.2419.3138.3133c.1292.0713.274.103.4186.0915.1447-.0115.2837-.0658.4018-.1568l3.1096-2.411.2448-.1901c3.3509 3.6153 7.95 5.877 13.0466 5.877 6.9496 0 13.0151-4.1601 16.187-10.2962l-.0131-.0068c.1406-.3253.1635-.6957.0641-1.0382-.0993-.3426-.3137-.6325-.6008-.8128z" fill="#56AEFF"/></g><defs><filter id="filter0_f" x="-1.33398" y="53.5" width="62" height="17" filterUnits="userSpaceOnUse" color-interpolation-filters="sRGB"><feFlood flood-opacity="0" result="BackgroundImageFix"/><feBlend in="SourceGraphic" in2="BackgroundImageFix" result="shape"/><feGaussianBlur stdDeviation="3" result="effect1_foregroundBlur"/></filter><filter id="filter1_f" x="12.666" y="59.5" width="34" height="7" filterUnits="userSpaceOnUse" color-interpolation-filters="sRGB"><feFlood flood-opacity="0" result="BackgroundImageFix"/><feBlend in="SourceGraphic" in2="BackgroundImageFix" result="shape"/><feGaussianBlur stdDeviation="1.5" result="effect1_foregroundBlur"/></filter></defs></svg>