<svg width="60" height="71" viewBox="0 0 60 71" fill="none" xmlns="http://www.w3.org/2000/svg"><mask id="a" maskUnits="userSpaceOnUse" x="0" y="0" width="60" height="71"><path fill="#C4C4C4" d="M0 .5h60v70H0z"/></mask><g mask="url(#a)"><g filter="url(#filter0_f)"><ellipse cx="29.666" cy="60" rx="25" ry="2.5" fill="#B8EAFF"/></g><g filter="url(#filter1_f)"><ellipse cx="29.666" cy="60" rx="14" ry=".5" fill="#007AEA" fill-opacity=".5"/></g><path fill-rule="evenodd" clip-rule="evenodd" d="M38.99 22.7862c.3537-.4242.2965-1.0548-.1277-1.4085l-7.4807-6.2373c-.1899-.1583-.4212-.2343-.6505-.2319-.2289-.0022-.4598.0739-.6494.2319l-7.4806 6.2373c-.4242.3537-.4814.9843-.1277 1.4085.3537.4242.9843.4813 1.4084.1276l6.0213-5.0204.0115 3.074h-.0187s.007.0394.0191.1143l.0326 8.7134c-.3716 2.2147-1.1309 4.4189-2.5745 6.0392-1.3289 1.3094-3.0714 2.1331-4.9396 2.335-.0513-.2714-.1309-.5368-.2376-.7922-.3465-.8212-.9321-1.5229-1.683-2.0165-.8802-.5765-1.9354-.8359-2.9873-.7342-1.0519.1017-2.0358.5583-2.7855 1.2923-.8595.8131-1.3641 1.9255-1.4071 3.0987.0034 1.1147.4264 2.1885 1.1873 3.0135.7608.8251 1.8053 1.3426 2.9312 1.4524 1.1259.1098 2.253-.1959 3.1633-.858.9102-.662 1.5388-1.6333 1.7639-2.7257 1.332-.113 2.6292-.4799 3.8193-1.0803 1.4564-.7312 2.7106-1.8001 3.6548-3.1148v4.3211c-.7331.1438-1.4188.4639-1.9959.932-.5771.4681-1.0277 1.0695-1.3117 1.7508-.2424.5695-.3607 1.1829-.3472 1.8004-.0001.8889.267 1.7578.7675 2.4973.3758.5521.8711 1.0153 1.4503 1.3564.5791.3411 1.2278.5515 1.8993.6162.1726.0166.3456.0235.5181.0207.1725.0028.3454-.0041.5179-.0207.6715-.0647 1.3202-.2752 1.8993-.6162.5792-.3411 1.0745-.8043 1.4503-1.3564.5005-.7395.7676-1.6084.7676-2.4973.0134-.6175-.1049-1.2309-.3472-1.8004-.2841-.6813-.7347-1.2827-1.3118-1.7508-.5771-.4681-1.2627-.7882-1.9959-.932v-4.3211c.9442 1.3147 2.1984 2.3836 3.6549 3.1148 1.1901.6004 2.4872.9672 3.8192 1.0803.2252 1.0924.8537 2.0637 1.7639 2.7257.9103.6621 2.0375.9678 3.1633.858 1.1259-.1098 2.1704-.6273 2.9312-1.4524.7609-.825 1.1839-1.8988 1.1873-3.0135-.043-1.1732-.5476-2.2856-1.4071-3.0987-.7496-.7341-1.7336-1.1906-2.7855-1.2923-1.0519-.1017-2.1071.1577-2.9873.7342-.7509.4936-1.3365 1.1953-1.683 2.0165-.1066.2554-.1863.5208-.2376.7922-1.8682-.2019-3.6107-1.0256-4.9396-2.335-.1555-.1554-.3011-.2956-.4375-.4269l-.0001-.0001-.0001-.0001c-1.8831-1.8123-2.0168-1.941-2.022-17.2861l5.7481 4.7927c.4242.3537 1.0548.2965 1.4085-.1276zm-8.1568 24.4237c.5147-.0129 1.0178-.1685 1.45-.4523.4541-.302.8096-.7273 1.0234-1.2243.2028-.4906.2537-1.0294.1462-1.5484-.1032-.5257-.3637-1.009-.748-1.3876-.3843-.3786-.8748-.6353-1.4084-.737-.1533-.0308-.3084-.0484-.4634-.053-.155.0046-.3099.0222-.4632.053-.5336.1017-1.0241.3583-1.4084.737-.3843.3786-.6448.8619-.7479 1.3876-.1075.519-.0567 1.0578.1461 1.5484.2138.497.5693.9223 1.0234 1.2243.4323.2838.9355.4394 1.4502.4523zm14.7954-6.1958c-.3191.3153-.7123.548-1.1448.6773-.4324.1293-.8906.1513-1.3338.064-.4431-.0873-.8575-.2812-1.2061-.5645-.3487-.2833-.6209-.6471-.7924-1.059-.2028-.4906-.2537-1.0294-.1462-1.5484.1032-.5258.3637-1.009.748-1.3877.3843-.3786.8748-.6353 1.4083-.7369.5268-.1059 1.0737-.0558 1.5716.144.4185.1686.7881.4366 1.0758.7802.2878.3435.4848.7519.5735 1.1886.0886.4368.0662.8884-.0653 1.3146-.1316.4261-.3681.8136-.6886 1.1278zm-29.591 0c.3191.3153.7124.548 1.1448.6773.4324.1293.8906.1513 1.3338.064.4431-.0873.8575-.2812 1.2062-.5645.3486-.2833.6208-.6471.7923-1.059.2028-.4906.2537-1.0294.1462-1.5484-.1032-.5258-.3637-1.009-.748-1.3877-.3843-.3786-.8747-.6352-1.4083-.7369-.5268-.1059-1.0737-.0558-1.5716.144-.4185.1686-.7881.4366-1.0758.7802-.2878.3435-.4848.7519-.5735 1.1886-.0886.4368-.0662.8884.0653 1.3146.1316.4261.3681.8136.6886 1.1278z" fill="#56AEFF"/></g><defs><filter id="filter0_f" x="-1.33398" y="51.5" width="62" height="17" filterUnits="userSpaceOnUse" color-interpolation-filters="sRGB"><feFlood flood-opacity="0" result="BackgroundImageFix"/><feBlend in="SourceGraphic" in2="BackgroundImageFix" result="shape"/><feGaussianBlur stdDeviation="3" result="effect1_foregroundBlur"/></filter><filter id="filter1_f" x="12.666" y="56.5" width="34" height="7" filterUnits="userSpaceOnUse" color-interpolation-filters="sRGB"><feFlood flood-opacity="0" result="BackgroundImageFix"/><feBlend in="SourceGraphic" in2="BackgroundImageFix" result="shape"/><feGaussianBlur stdDeviation="1.5" result="effect1_foregroundBlur"/></filter></defs></svg>