<svg width="61" height="70" viewBox="0 0 61 70" fill="none" xmlns="http://www.w3.org/2000/svg"><mask id="a" maskUnits="userSpaceOnUse" x="0" y="0" width="61" height="70"><path fill="#C4C4C4" d="M.333984 0h60v70h-60z"/></mask><g mask="url(#a)"><g filter="url(#filter0_f)"><ellipse cx="30" cy="61.5" rx="25" ry="2.5" fill="#B8EAFF"/></g><g filter="url(#filter1_f)"><ellipse cx="30" cy="61.5" rx="14" ry=".5" fill="#007AEA" fill-opacity=".5"/></g><mask id="b" fill="#fff"><path d="M28.3464 49.7332c.6679.3572 1.5062.355 2.1742-.0023 18.2025-9.7933 19.4952-28.9273 19.4793-34.3678-.0018-.4373-.1308-.8645-.3713-1.2295-.2405-.3649-.582-.6517-.9828-.8252L30.357 5.19428c-.2911-.1285-.6057-.19467-.9238-.19428-.318.00039-.6325.06734-.9233.19655L10.3484 13.3107c-.3949.1736-.73162.4572-.97008.817-.23846.3599-.3686.7808-.37493 1.2126-.07724 5.4132 1.01101 24.5882 19.34301 34.3929z"/></mask><path d="M28.3464 49.7332l-.9433 1.7636.9433-1.7636zm2.1742-.0023l.9432 1.7636.0044-.0023-.9476-1.7613zm19.4793-34.3678l2-.0059-.0001-.002-1.9999.0079zm-1.3541-2.0547l-.8111 1.8281.0083.0037.0083.0036.7945-1.8354zM30.357 5.19428l.8111-1.82816-.0034-.00147-.8077 1.82963zm-1.8471.00227l-.8122-1.82764-.0036.0016.8158 1.82604zM10.3484 13.3107l.8048 1.8309.011-.0049-.8158-1.826zm-1.34501 2.0296l-1.99978-.0292-.00001.0007 1.99979.0285zM27.4031 51.4968c1.2613.6746 2.8075.668 4.0607-.0023l-1.8865-3.5272c-.0826.0442-.2131.0422-.2877.0023l-1.8865 3.5272zm4.0651-.0046c19.2437-10.3536 20.548-30.5445 20.5317-36.135l-4 .0117c.0154 5.2906-1.2657 23.3676-18.4269 32.6008l1.8952 3.5225zm20.5316-36.137c-.0032-.8256-.2468-1.6326-.7012-2.3221l-3.34 2.201c.0266.0404.0411.088.0413.1369l3.9999-.0158zm-.7012-2.3221c-.4544-.6896-1.1001-1.2319-1.8583-1.5601l-1.589 3.6708c.0433.0188.0808.05.1073.0903l3.34-2.201zm-1.8417-1.5529L31.1681 3.36612l-1.6222 3.65631 18.2888 8.11407 1.6222-3.6563zM31.1647 3.36465A4.279981 4.279981 0 0029.4308 3l.0049 4a.279716.279716 0 01.1135.0239l1.6155-3.65925zM29.4308 3a4.280161 4.280161 0 00-1.7331.36892l1.6245 3.65526A.280164.280164 0 0129.4357 7l-.0049-4zm-1.7367.37051L9.53253 11.4846l1.63167 3.6521 18.1616-8.11411-1.6317-3.65208zM9.54349 11.4798c-.74629.328-1.38221.8639-1.83235 1.5432l3.33436 2.2095c.0268-.0404.0643-.0718.1077-.0909l-1.60971-3.6618zM7.71114 13.023c-.45012.6792-.6956 1.4735-.70753 2.2881l3.99959.0585c.0007-.0491.0155-.0967.0423-.1371L7.71114 13.023zm-.70754 2.2888c-.07942 5.5657 1.0106 25.815 20.3995 36.185l1.8865-3.5272c-17.275-9.2395-18.3615-27.34-18.2864-32.6007l-3.9996-.0571z" fill="#56AEFF" mask="url(#b)"/><mask id="c" maskUnits="userSpaceOnUse" x="19" y="18" width="22" height="17" fill="#000"><path fill="#fff" d="M19 18h22v17H19z"/><path d="M27.8755 28.043l-4.8715-4.8301L20 26.1914 27.8755 34 40 21.9785 36.996 19l-9.1205 9.043z"/></mask><path d="M27.8755 28.043l-4.8715-4.8301L20 26.1914 27.8755 34 40 21.9785 36.996 19l-9.1205 9.043z" fill="#56AEFF"/><path d="M23.004 23.2129l.7041-.7101c-.3898-.3865-1.0183-.3865-1.4081 0l.704.7101zm4.8715 4.8301l-.7041.7101c.3898.3865 1.0184.3865 1.4082 0l-.7041-.7101zM36.996 19l.7041-.7101c-.3899-.3865-1.0184-.3865-1.4082 0L36.996 19zM40 21.9785l.7041.7101c.1894-.1877.2959-.4434.2959-.7101 0-.2667-.1065-.5223-.2959-.7101L40 21.9785zM27.8755 34l-.7041.7101c.3898.3865 1.0184.3865 1.4082 0L27.8755 34zM20 26.1914l-.7041-.7101c-.1894.1878-.2959.4434-.2959.7101 0 .2667.1065.5223.2959.7101L20 26.1914zm2.3-2.2684l4.8714 4.8301 1.4082-1.4202-4.8715-4.8301L22.3 23.923zm13.9919-4.2129l3.004 2.9785 1.4082-1.4202-3.004-2.9785-1.4082 1.4202zm-7.7123 13.5798l-7.8755-7.8086-1.4082 1.4202 7.8755 7.8086 1.4082-1.4202zm-7.8755-6.3884l3.004-2.9785L22.3 22.5028l-3.0041 2.9785 1.4082 1.4202zm7.8755 1.8516l9.1205-9.043-1.4082-1.4202-9.1205 9.043 1.4082 1.4202zm10.7163-7.4847L27.1714 33.2899l1.4082 1.4202 12.1245-12.0215-1.4082-1.4202z" fill="#56AEFF" mask="url(#c)"/></g><defs><filter id="filter0_f" x="-1" y="53" width="62" height="17" filterUnits="userSpaceOnUse" color-interpolation-filters="sRGB"><feFlood flood-opacity="0" result="BackgroundImageFix"/><feBlend in="SourceGraphic" in2="BackgroundImageFix" result="shape"/><feGaussianBlur stdDeviation="3" result="effect1_foregroundBlur"/></filter><filter id="filter1_f" x="13" y="58" width="34" height="7" filterUnits="userSpaceOnUse" color-interpolation-filters="sRGB"><feFlood flood-opacity="0" result="BackgroundImageFix"/><feBlend in="SourceGraphic" in2="BackgroundImageFix" result="shape"/><feGaussianBlur stdDeviation="1.5" result="effect1_foregroundBlur"/></filter></defs></svg>