<svg width="61" height="70" viewBox="0 0 61 70" fill="none" xmlns="http://www.w3.org/2000/svg"><mask id="a" maskUnits="userSpaceOnUse" x="0" y="0" width="61" height="70"><path fill="#C4C4C4" d="M.666016 0h60v70h-60z"/></mask><g mask="url(#a)"><g filter="url(#filter0_f)"><ellipse cx="30.332" cy="61.5" rx="25" ry="2.5" fill="#B8EAFF"/></g><g filter="url(#filter1_f)"><ellipse cx="30.332" cy="62.5" rx="14" ry=".5" fill="#007AEA" fill-opacity=".5"/></g><path d="M22.0858 32.1012C20.8095 30.9367 20 29.252 20 27.3841c0-1.7616.715-3.3635 1.8672-4.5162C23.0194 21.7153 24.6207 21 26.3815 21c1.5659 0 3.0076.5675 4.1185 1.5074C31.6109 21.5675 33.0526 21 34.6185 21c1.7608 0 3.3621.7153 4.5143 1.8679C40.285 24.0206 41 25.6225 41 27.3841c0 1.8679-.8095 3.5526-2.0858 4.7112-.0118.0118-.0177.0177-.0237.0295l-7.5042 7.5072c-.4904.4907-1.2822.4907-1.7726 0l-7.5042-7.5072c-.0119-.0059-.0178-.0118-.0237-.0236zM48.2161 11.3066c.4087-.4088 1.0686-.4088 1.4773 0 .4088.4087.4088 1.0686 0 1.4773l-5.9095 5.9095c-.4087.4088-1.0686.4088-1.4773 0-.4088-.4087-.4088-1.0686 0-1.4773l5.9095-5.9095zM11.3066 48.2161l5.9095-5.9095c.4087-.4088 1.0686-.4088 1.4773 0 .4088.4087.4088 1.0686 0 1.4773l-5.9095 5.9095c-.4087.4088-1.0686.4088-1.4773 0-.4088-.4087-.4088-1.0686 0-1.4773zM48.2161 49.6934l-5.9095-5.9095c-.4088-.4087-.4088-1.0686 0-1.4773.4087-.4088 1.0686-.4088 1.4773 0l5.9095 5.9095c.4088.4087.4088 1.0686 0 1.4773-.4038.4088-1.0686.4088-1.4773 0zM17.2161 18.6934l-5.9095-5.9095c-.4088-.4087-.4088-1.0686 0-1.4773.4087-.4088 1.0686-.4088 1.4773 0l5.9095 5.9095c.4088.4087.4088 1.0686 0 1.4773-.4087.4088-1.0686.4088-1.4773 0zM20.0868 51.4906l1.6661-3.8116c.242-.557.9238-.8253 1.5232-.5983.5939.2269.8798.8717.6379 1.4287l-1.6662 3.8116c-.2419.557-.9238.8253-1.5232.5983-.5993-.2269-.8798-.8665-.6378-1.4287zM13.321 21.7525c.557.242.8253.924.5983 1.5235-.2321.594-.8717.88-1.4287.638L8.679 22.2475c-.55704-.242-.82525-.9295-.59831-1.5235.22694-.594.86651-.88 1.42871-.638l3.8116 1.6665zM20.7117 8.08451c.5895-.23242 1.2665.03098 1.5176.58878l1.6814 3.80641c.2456.5578-.0328 1.1982-.6224 1.4358-.5895.2324-1.2665-.031-1.5176-.5888l-1.6814-3.8064c-.2456-.55779.0328-1.19822.6224-1.43579zM37.723 13.9186c-.5931-.232-.8787-.8715-.6371-1.4285l1.6697-3.81118c.2417-.55698.9227-.82515 1.5214-.59824.5931.22692.8787.87157.6371 1.42855l-1.6697 3.81117c-.2471.5621-.9282.8251-1.5214.5982zM13.3267 39.2293l-3.8064 1.6814c-.55779.2456-1.19822-.0328-1.43579-.6224-.23242-.5895.03098-1.2665.58877-1.5176l3.80642-1.6814c.5578-.2456 1.1982.0328 1.4358.6224.2324.595-.031 1.2719-.5888 1.5176zM38.7731 52.3247l-1.6837-3.805c-.246-.5575.0328-1.1977.6232-1.4352.5904-.2324 1.2683.031 1.5197.5885l1.6783 3.8102c.246.5576-.0328 1.1978-.6232 1.4353-.5904.2271-1.2683-.0362-1.5143-.5938zM47.0845 23.2854c-.2324-.59.031-1.2675.5888-1.5188l3.8064-1.6772c.5578-.2459 1.1982.0328 1.4358.6228.2324.5901-.031 1.2675-.5888 1.5188l-3.8064 1.6827c-.563.2404-1.2034-.0382-1.4358-.6283zM52.321 38.7556c.557.2417.8253.9282.5983 1.5214-.2269.5931-.8665.8787-1.4287.6371l-3.8116-1.6697c-.557-.2471-.8253-.9282-.5983-1.5214.2321-.5931.8665-.8787 1.4287-.6371l3.8116 1.6697z" fill="#56AEFF"/></g><defs><filter id="filter0_f" x="-.667969" y="53" width="62" height="17" filterUnits="userSpaceOnUse" color-interpolation-filters="sRGB"><feFlood flood-opacity="0" result="BackgroundImageFix"/><feBlend in="SourceGraphic" in2="BackgroundImageFix" result="shape"/><feGaussianBlur stdDeviation="3" result="effect1_foregroundBlur"/></filter><filter id="filter1_f" x="13.332" y="59" width="34" height="7" filterUnits="userSpaceOnUse" color-interpolation-filters="sRGB"><feFlood flood-opacity="0" result="BackgroundImageFix"/><feBlend in="SourceGraphic" in2="BackgroundImageFix" result="shape"/><feGaussianBlur stdDeviation="1.5" result="effect1_foregroundBlur"/></filter></defs></svg>