<svg width="61" height="70" viewBox="0 0 61 70" fill="none" xmlns="http://www.w3.org/2000/svg"><mask id="a" maskUnits="userSpaceOnUse" x="0" y="0" width="61" height="70"><path fill="#C4C4C4" d="M.333984 0h60v70h-60z"/></mask><g mask="url(#a)"><g filter="url(#filter0_f)"><ellipse cx="30" cy="59.5" rx="25" ry="2.5" fill="#B8EAFF"/></g><g filter="url(#filter1_f)"><ellipse cx="30" cy="59.5" rx="14" ry=".5" fill="#007AEA" fill-opacity=".5"/></g><path fill-rule="evenodd" clip-rule="evenodd" d="M40.6615 16.5c-3.74 0-6.8425 2.805-7.3525 6.4175h-5.27c-1.9125 0-3.5275 1.1475-4.165 2.9325-.6375 1.785-.085 3.6975 1.4025 4.8875l8.84 7.055c.9775.8075 1.0625 1.9125.765 2.6775-.255.765-1.02 1.615-2.295 1.615H27.359c-.4675-3.6125-3.57-6.4175-7.31-6.4175h-6.715V50.5h6.6725c3.74 0 6.8425-2.805 7.31-6.4175h5.27c1.9125 0 3.5275-1.1475 4.165-2.9325.6375-1.785.085-3.6975-1.4025-4.8875l-8.7975-7.055c-.9775-.8075-1.0625-1.9125-.765-2.6775.255-.765 1.02-1.615 2.295-1.615h5.2275c.4675 3.6125 3.57 6.4175 7.31 6.4175h6.715V16.5h-6.6725zM17.6266 48.5025h2.3799c3.0175 0 5.44-2.4225 5.44-5.3975s-2.4225-5.3975-5.3975-5.3975h-2.4224v10.795zm23.0349-30.005h2.89v10.795h-2.89c-2.975 0-5.3975-2.4225-5.3975-5.3975s2.4225-5.3975 5.3975-5.3975z" fill="#56AEFF"/></g><defs><filter id="filter0_f" x="-1" y="51" width="62" height="17" filterUnits="userSpaceOnUse" color-interpolation-filters="sRGB"><feFlood flood-opacity="0" result="BackgroundImageFix"/><feBlend in="SourceGraphic" in2="BackgroundImageFix" result="shape"/><feGaussianBlur stdDeviation="3" result="effect1_foregroundBlur"/></filter><filter id="filter1_f" x="13" y="56" width="34" height="7" filterUnits="userSpaceOnUse" color-interpolation-filters="sRGB"><feFlood flood-opacity="0" result="BackgroundImageFix"/><feBlend in="SourceGraphic" in2="BackgroundImageFix" result="shape"/><feGaussianBlur stdDeviation="1.5" result="effect1_foregroundBlur"/></filter></defs></svg>