<svg width="61" height="70" viewBox="0 0 61 70" fill="none" xmlns="http://www.w3.org/2000/svg"><mask id="a" maskUnits="userSpaceOnUse" x="0" y="0" width="61" height="70"><path fill="#C4C4C4" d="M.666016 0h60v70h-60z"/></mask><g mask="url(#a)"><g filter="url(#filter0_f)"><ellipse cx="30.332" cy="59.5" rx="25" ry="2.5" fill="#B8EAFF"/></g><g filter="url(#filter1_f)"><ellipse cx="30.332" cy="59.5" rx="14" ry=".5" fill="#007AEA" fill-opacity=".5"/></g><path fill-rule="evenodd" clip-rule="evenodd" d="M39.655 22.2861c.3537-.4242.2965-1.0547-.1276-1.4084l-7.4807-6.2373c-.19-.1584-.4213-.2344-.6506-.2319-.2289-.0022-.4597.0738-.6493.2319l-7.4807 6.2373c-.4242.3537-.4813.9843-.1277 1.4084.3537.4242.9843.4814 1.4085.1277l6.8498-5.7113 6.8499 5.7113c.4242.3537 1.0547.2965 1.4084-.1277zM18.1906 34.1264c-1.0519.1017-2.0358.5582-2.7854 1.2923-.8595.813-1.3642 1.9255-1.4072 3.0986.0034 1.1148.4265 2.1886 1.1873 3.0136.7608.825 1.8053 1.3425 2.9312 1.4524 1.1259.1098 2.2531-.1959 3.1633-.858.9103-.662 1.5388-1.6333 1.7639-2.7257 1.3321-.1131 2.6292-.48 3.8193-1.0803 1.4564-.7312 2.7107-1.8001 3.6548-3.1148v4.3211c-.7331.1437-1.4188.4639-1.9959.932-.5771.468-1.0277 1.0695-1.3117 1.7507-.2424.5696-.3607 1.183-.3472 1.8005 0 .8888.267 1.7578.7675 2.4973.3758.5521.8711 1.0153 1.4503 1.3564.5792.341 1.2278.5515 1.8994.6161.1725.0167.3454.0235.5179.0208.1726.0027.3455-.0041.518-.0208.6716-.0646 1.3202-.2751 1.8994-.6161.5791-.3411 1.0744-.8043 1.4503-1.3564.5005-.7395.7675-1.6085.7675-2.4973.0135-.6175-.1048-1.2309-.3472-1.8005-.284-.6812-.7347-1.2827-1.3118-1.7507-.5771-.4681-1.2627-.7883-1.9958-.932v-4.3211c.9441 1.3147 2.1984 2.3836 3.6548 3.1148 1.1901.6003 2.4872.9672 3.8193 1.0803.2251 1.0924.8536 2.0637 1.7639 2.7257.9102.6621 2.0374.9678 3.1633.858 1.1259-.1099 2.1703-.6274 2.9312-1.4524.7608-.825 1.1839-1.8988 1.1872-3.0136-.043-1.1731-.5476-2.2856-1.4071-3.0986-.7496-.7341-1.7336-1.1906-2.7854-1.2923-1.0519-.1017-2.1072.1576-2.9873.7342-.7509.4936-1.3366 1.1953-1.6831 2.0165-.1066.2553-.1862.5208-.2375.7922-1.8683-.202-3.6107-1.0257-4.9397-2.335-.1042-.1028-.2073-.1966-.3086-.2889l-.0003-.0002v-.0001c-1.1907-1.0842-2.1509-1.9586-2.1509-14.5451h-.0005l.0002-.0326h-1.937l.0038.0219.04 8.8522c-.3744 2.199-1.1331 4.3838-2.5666 5.9928-1.329 1.3093-3.0714 2.133-4.9397 2.335-.0513-.2714-.1309-.5369-.2375-.7922-.3465-.8212-.9322-1.5229-1.6831-2.0165-.8801-.5766-1.9354-.8359-2.9873-.7342zm13.3076 7.1809c.155.0046.31.0222.4633.053.5335.1017 1.024.3583 1.4083.737.3843.3786.6448.8618.748 1.3876.1075.519.0566 1.0578-.1462 1.5484-.2138.497-.5692.9223-1.0233 1.2243-.4323.2838-.9355.4394-1.4502.4523-.5146-.0129-1.0178-.1685-1.4501-.4523-.4541-.302-.8096-.7273-1.0233-1.2243-.2028-.4906-.2537-1.0294-.1462-1.5484.1032-.5258.3637-1.009.748-1.3876.3843-.3787.8748-.6353 1.4083-.737.1533-.0308.3084-.0484.4634-.053zm-14.7956-.7932c.3191.3153.7124.5479 1.1448.6773.4325.1293.8907.1513 1.3338.064.4432-.0874.8575-.2813 1.2062-.5645.3487-.2833.6209-.6471.7924-1.0591.2028-.4906.2536-1.0293.1461-1.5484-.1031-.5257-.3636-1.009-.7479-1.3876-.3843-.3786-.8748-.6353-1.4084-.7369-.5268-.106-1.0736-.0558-1.5716.144-.4184.1686-.788.4366-1.0758.7801-.2878.3436-.4848.7519-.5734 1.1887-.0887.4368-.0663.8884.0653 1.3146.1315.4261.3681.8136.6885 1.1278zm29.5911 0c-.3191.3153-.7124.5479-1.1448.6773-.4325.1293-.8907.1513-1.3338.064-.4432-.0873-.8575-.2813-1.2062-.5645-.3487-.2833-.6209-.6471-.7924-1.0591-.2028-.4906-.2537-1.0293-.1462-1.5484.1032-.5257.3637-1.009.748-1.3876.3843-.3786.8748-.6353 1.4084-.7369.5268-.106 1.0736-.0558 1.5716.144.4184.1686.788.4366 1.0758.7801.2877.3436.4848.7519.5734 1.1887.0887.4368.0662.8884-.0653 1.3146-.1315.4261-.3681.8136-.6885 1.1278z" fill="#56AEFF"/></g><defs><filter id="filter0_f" x="-.667969" y="51" width="62" height="17" filterUnits="userSpaceOnUse" color-interpolation-filters="sRGB"><feFlood flood-opacity="0" result="BackgroundImageFix"/><feBlend in="SourceGraphic" in2="BackgroundImageFix" result="shape"/><feGaussianBlur stdDeviation="3" result="effect1_foregroundBlur"/></filter><filter id="filter1_f" x="13.332" y="56" width="34" height="7" filterUnits="userSpaceOnUse" color-interpolation-filters="sRGB"><feFlood flood-opacity="0" result="BackgroundImageFix"/><feBlend in="SourceGraphic" in2="BackgroundImageFix" result="shape"/><feGaussianBlur stdDeviation="1.5" result="effect1_foregroundBlur"/></filter></defs></svg>